<svg width="24" height="21" viewBox="0 0 24 21" fill="none" xmlns="http://www.w3.org/2000/svg">
<path d="M8 3.5C7.73478 3.5 7.48043 3.59219 7.29289 3.75628C7.10536 3.92038 7 4.14294 7 4.375V17.5L9.978 15.1226C10.5307 14.6814 11.2518 14.4368 12 14.4368C12.7482 14.4368 13.4693 14.6814 14.022 15.1226L17 17.5V4.375C17 4.14294 16.8946 3.92038 16.7071 3.75628C16.5196 3.59219 16.2652 3.5 16 3.5H8ZM8 1.75H16C16.7957 1.75 17.5587 2.02656 18.1213 2.51884C18.6839 3.01113 19 3.67881 19 4.375V17.5C18.9999 17.8393 18.8871 18.1712 18.6754 18.4554C18.4636 18.7396 18.162 18.9638 17.8073 19.1007C17.4525 19.2376 17.0599 19.2814 16.6773 19.2267C16.2946 19.1719 15.9384 19.021 15.652 18.7924L12.674 16.415C12.4898 16.2679 12.2494 16.1864 12 16.1864C11.7506 16.1864 11.5102 16.2679 11.326 16.415L8.348 18.7924C8.06157 19.021 7.70536 19.1719 7.32272 19.2267C6.94007 19.2814 6.54749 19.2376 6.19275 19.1007C5.83801 18.9638 5.5364 18.7396 5.32464 18.4554C5.11288 18.1712 5.00009 17.8393 5 17.5V4.375C5 3.67881 5.31607 3.01113 5.87868 2.51884C6.44129 2.02656 7.20435 1.75 8 1.75V1.75ZM9 8.75H15C15.2652 8.75 15.5196 8.84219 15.7071 9.00628C15.8946 9.17038 16 9.39294 16 9.625C16 9.85707 15.8946 10.0796 15.7071 10.2437C15.5196 10.4078 15.2652 10.5 15 10.5H9C8.73478 10.5 8.48043 10.4078 8.29289 10.2437C8.10536 10.0796 8 9.85707 8 9.625C8 9.39294 8.10536 9.17038 8.29289 9.00628C8.48043 8.84219 8.73478 8.75 9 8.75Z" fill="white"/>
</svg>
